<?xml version="1.0" standalone="no"?>
<!DOCTYPE svg PUBLIC "-//W3C//DTD SVG 20010904//EN"
 "http://www.w3.org/TR/2001/REC-SVG-20010904/DTD/svg10.dtd">
<svg version="1.0" xmlns="http://www.w3.org/2000/svg"
 width="173.000000pt" height="85.000000pt" viewBox="0 0 173.000000 85.000000"
 preserveAspectRatio="xMidYMid meet">

<g transform="translate(0.000000,85.000000) scale(0.100000,-0.100000)"
fill="#ffffff" stroke="none">
<path d="M480 456 c0 -154 -3 -187 -16 -200 -19 -19 -55 -21 -72 -4 -15 15
-27 1 -38 -41 -9 -31 9 -41 78 -41 49 0 62 4 88 28 42 37 49 78 50 275 l0 167
-45 0 -45 0 0 -184z"/>
<path d="M700 405 l0 -235 54 0 c132 0 207 34 248 113 18 34 22 59 22 132 0
98 -11 130 -61 176 -40 37 -84 49 -179 49 l-84 0 0 -235z m189 149 c32 -23 51
-74 51 -139 0 -102 -47 -165 -121 -165 l-39 0 0 160 0 160 43 0 c23 0 53 -7
66 -16z"/>
<path d="M1162 413 c49 -126 93 -232 97 -236 6 -6 75 161 190 455 1 5 -18 8
-45 6 l-47 -3 -43 -129 c-24 -71 -45 -131 -47 -133 -3 -2 -26 57 -53 132 l-48
135 -47 0 -47 0 90 -227z"/>
</g>
</svg>
